<?xml version="1.0" encoding="utf-8"?>
<!-- Generator: Adobe Illustrator 28.3.0, SVG Export Plug-In . SVG Version: 6.00 Build 0)  -->
<svg version="1.1" id="Layer_1" xmlns="http://www.w3.org/2000/svg" xmlns:xlink="http://www.w3.org/1999/xlink" x="0px" y="0px"
	 viewBox="0 0 64 64" style="enable-background:new 0 0 64 64;" xml:space="preserve">
<style type="text/css">
	.st0{fill-rule:evenodd;clip-rule:evenodd;fill:#FFFFFF;}
</style>
<path class="st0" d="M32,11.6c11.8,0,21.3,10.1,21.3,20.9c0,11.6-8.4,20.4-18.7,21.6V38.2h3.6l1.8-4.5l-5.3,0v-4.2c0-1.1,0.9-2,2-2
	c0.8,0,1.5,0,1.5,0V24h-3.8c-1.4,0-2.7,0.5-3.6,1.5c-1,1-1.5,2.3-1.5,3.6c0,2.4,0,4.6,0,4.6h-3.6v4.5h3.6V54
	c-10.2-1.1-18.7-9.8-18.7-21.6C10.7,21.7,20,11.6,32,11.6z"/>
</svg>
