<?xml version="1.0" encoding="utf-8"?>
<!-- Generator: Adobe Illustrator 28.3.0, SVG Export Plug-In . SVG Version: 6.00 Build 0)  -->
<svg version="1.1" id="Layer_1" xmlns="http://www.w3.org/2000/svg" xmlns:xlink="http://www.w3.org/1999/xlink" x="0px" y="0px"
	 viewBox="0 0 24 24" style="enable-background:new 0 0 24 24;" xml:space="preserve">
<style type="text/css">
	.st0{fill:#FFFFFF;}
</style>
<path class="st0" d="M8,3C5.2,3,3,5.2,3,8v8c0,2.8,2.2,5,5,5h8c2.8,0,5-2.2,5-5V8c0-2.8-2.2-5-5-5H8z M8,5h8c1.7,0,3,1.3,3,3v8
	c0,1.7-1.3,3-3,3H8c-1.7,0-3-1.3-3-3V8C5,6.3,6.3,5,8,5z M17,6c-0.6,0-1,0.4-1,1s0.4,1,1,1s1-0.4,1-1S17.6,6,17,6z M12,7
	c-2.8,0-5,2.2-5,5s2.2,5,5,5s5-2.2,5-5S14.8,7,12,7z M12,9c1.7,0,3,1.3,3,3s-1.3,3-3,3s-3-1.3-3-3S10.3,9,12,9z"/>
</svg>
