<?xml version="1.0" encoding="utf-8"?>
<!-- Generator: Adobe Illustrator 28.3.0, SVG Export Plug-In . SVG Version: 6.00 Build 0)  -->
<svg version="1.1" id="Layer_1" xmlns="http://www.w3.org/2000/svg" xmlns:xlink="http://www.w3.org/1999/xlink" x="0px" y="0px"
	 viewBox="0 0 64 64" style="enable-background:new 0 0 64 64;" xml:space="preserve">
<style type="text/css">
	.st0{fill:#FFFFFF;}
</style>
<path class="st0" d="M48,8H16c-4.4,0-8,3.6-8,8v32c0,4.4,3.6,8,8,8h32c4.4,0,8-3.6,8-8V16C56,11.6,52.4,8,48,8z M24,47h-5V27h5V47z
	 M24,23c-0.6,0.7-1.5,1-2.5,1c-1,0-1.9-0.3-2.5-1s-1-1.5-1-2.5c0-1,0.3-1.9,1-2.5c0.7-0.6,1.5-1,2.5-1c1,0,1.9,0.3,2.5,1
	c0.6,0.6,1,1.5,1,2.5C25,21.5,24.7,22.3,24,23z M47,47h-5V35.9c0-3.1-1.8-4.9-4-4.9c-1.1,0-2.3,0.6-3,1.5c-0.7,0.8-1,1.9-1,3.1V47
	h-5V27h5v3.2h0.1c1.5-2.4,3.6-3.6,6.4-3.7c4,0,6.5,3,6.5,8.2V47z"/>
</svg>
