<?xml version="1.0" encoding="UTF-8"?>
<svg id="Layer_1" data-name="Layer 1" xmlns="http://www.w3.org/2000/svg" version="1.1" viewBox="0 0 85 85">
  <defs>
    <style>
      .cls-1 {
        fill: #fff;
        stroke-width: 0px;
      }
    </style>
  </defs>
  <path class="cls-1" d="M77.3,81.2c0,2.1-1.7,3.9-3.9,3.9s-3.9-1.7-3.9-3.9c0-14.9-12.1-27.1-27.1-27.1s-27.1,12.1-27.1,27.1-1.7,3.9-3.9,3.9-3.9-1.7-3.9-3.9c0-19.2,15.6-34.8,34.8-34.8s34.8,15.6,34.8,34.8ZM42.5,42.5c-11.7,0-21.3-9.5-21.3-21.3S30.8,0,42.5,0s21.3,9.5,21.3,21.3-9.5,21.3-21.3,21.3ZM42.5,34.8c7.5,0,13.5-6.1,13.5-13.5s-6.1-13.5-13.5-13.5-13.5,6.1-13.5,13.5,6.1,13.5,13.5,13.5Z"/>
</svg>