<?xml version="1.0" encoding="UTF-8"?>
<svg id="Layer_1" data-name="Layer 1" xmlns="http://www.w3.org/2000/svg" version="1.1" viewBox="0 0 85 85">
  <defs>
    <style>
      .cls-1 {
        fill: #fff;
        stroke-width: 0px;
      }
    </style>
  </defs>
  <path class="cls-1" d="M83.8,77.6l-23.4-23.4c4.5-5.9,7-13.1,7-20.6C67.4,15.1,52.3,0,33.7,0S0,15.1,0,33.7s15.1,33.7,33.7,33.7,14.7-2.5,20.6-7l23.4,23.4c.8.8,2,1.3,3.1,1.3s2.2-.4,3.1-1.3c.8-.8,1.3-1.9,1.3-3.1s-.5-2.3-1.3-3.1ZM33.7,8.7c13.8,0,25,11.2,25,25s-11.2,25-25,25-25-11.2-25-25,11.2-25,25-25Z"/>
</svg>