<?xml version="1.0" encoding="utf-8"?>
<!-- Generator: Adobe Illustrator 28.3.0, SVG Export Plug-In . SVG Version: 6.00 Build 0)  -->
<svg version="1.1" id="Layer_1" xmlns="http://www.w3.org/2000/svg" xmlns:xlink="http://www.w3.org/1999/xlink" x="0px" y="0px"
	 viewBox="0 0 24 24" style="enable-background:new 0 0 24 24;" xml:space="preserve">
<style type="text/css">
	.st0{fill:#FFFFFF;}
</style>
<path class="st0" d="M21.6,6.2c-0.2-0.9-0.9-1.5-1.8-1.8C18.3,4,12,4,12,4S5.7,4,4.2,4.4C3.3,4.6,2.6,5.3,2.4,6.2C2,7.7,2,12,2,12
	s0,4.3,0.4,5.8c0.2,0.9,0.9,1.5,1.8,1.8C5.7,20,12,20,12,20s6.3,0,7.8-0.4c0.9-0.2,1.5-0.9,1.8-1.8C22,16.3,22,12,22,12
	S22,7.7,21.6,6.2z M10,14.6V9.4C10,9,10.4,8.8,10.8,9l4.5,2.6c0.3,0.2,0.3,0.7,0,0.9L10.8,15C10.4,15.2,10,15,10,14.6z"/>
</svg>
