<?xml version="1.0" encoding="utf-8"?>
<!-- Generator: Adobe Illustrator 28.3.0, SVG Export Plug-In . SVG Version: 6.00 Build 0)  -->
<svg version="1.1" id="Layer_1" xmlns="http://www.w3.org/2000/svg" xmlns:xlink="http://www.w3.org/1999/xlink" x="0px" y="0px"
	 viewBox="0 0 50 50" style="enable-background:new 0 0 50 50;" xml:space="preserve">
<style type="text/css">
	.st0{fill:#FFFFFF;}
</style>
<path class="st0" d="M21.5,26.2c0.2,0,0.4,0,0.5,0.1V22c-0.2,0-0.3,0-0.5,0c-4.7,0-8.5,3.8-8.5,8.5c0,4.7,3.8,8.5,8.5,8.5
	c4.7,0,8.5-3.8,8.5-8.5c0-0.1,0-6.2,0-11.5c1.3,2,3.6,3.4,6.3,3.4c0.2,0,0.5,0,0.7,0v-4.7c-3.6-0.3-6.5-3.1-6.9-6.7h-4
	c0,0,0,19.5,0,19.6c0,2.4-2.1,4.3-4.5,4.3s-4.4-1.9-4.4-4.4S19.1,26.2,21.5,26.2z"/>
</svg>
